<svg width="35" height="35" viewBox="0 0 35 35" fill="none" xmlns="http://www.w3.org/2000/svg">
<path opacity="0.4" d="M35 10.1675V24.8325C35 29.75 32.7425 33.1275 28.77 34.405C27.615 34.8075 26.285 35 24.8325 35H10.1675C8.715 35 7.385 34.8075 6.23 34.405C2.2575 33.1275 0 29.75 0 24.8325V10.1675C0 3.7975 3.7975 0 10.1675 0H24.8325C31.2025 0 35 3.7975 35 10.1675Z" fill="#1E88E5"/>
<path d="M28.7709 34.4049C27.6159 34.8074 26.2859 34.9999 24.8334 34.9999H10.1683C8.71577 34.9999 7.38577 34.8074 6.23077 34.4049C6.84327 29.7849 11.6733 26.1974 17.5007 26.1974C23.3282 26.1974 28.1584 29.7849 28.7709 34.4049Z" fill="#1E88E5"/>
<path d="M23.765 16.7651C23.765 20.2301 20.965 23.0476 17.5 23.0476C14.035 23.0476 11.235 20.2301 11.235 16.7651C11.235 13.3002 14.035 10.5001 17.5 10.5001C20.965 10.5001 23.765 13.3002 23.765 16.7651Z" fill="#1E88E5"/>
</svg>