<svg width="27" height="29" viewBox="0 0 27 29" fill="none" xmlns="http://www.w3.org/2000/svg">
<path d="M16.6132 2.36351C15.4836 1.49951 14.085 1 12.5519 1C8.84016 1 5.82776 4.024 5.82776 7.75C5.82776 11.476 8.84016 14.5 12.5519 14.5C16.2636 14.5 19.276 11.476 19.276 7.75" stroke="#42A5F5" stroke-width="2" stroke-linecap="round" stroke-linejoin="round"/>
<path d="M1 28C1 22.7755 6.17755 18.55 12.5521 18.55C13.8431 18.55 15.0938 18.7255 16.2638 19.0495" stroke="#42A5F5" stroke-width="2" stroke-linecap="round" stroke-linejoin="round"/>
<path d="M26 22.6C26 23.6125 25.7176 24.571 25.22 25.381C24.9376 25.867 24.5745 26.299 24.1576 26.65C23.2162 27.5005 21.979 28 20.6207 28C18.6573 28 16.9494 26.947 16.0215 25.381C15.5239 24.571 15.2415 23.6125 15.2415 22.6C15.2415 20.899 16.0215 19.3735 17.2587 18.388C18.1866 17.6455 19.3566 17.2 20.6207 17.2C23.5928 17.2 26 19.6165 26 22.6Z" stroke="#42A5F5" stroke-width="2" stroke-miterlimit="10" stroke-linecap="round" stroke-linejoin="round"/>
<path d="M18.5221 22.6L19.8533 23.9365L22.7178 21.277" stroke="#42A5F5" stroke-width="2" stroke-linecap="round" stroke-linejoin="round"/>
</svg>