<svg
  width="608"
  height="59"
  viewBox="0 0 608 59"
  fill="none"
  xmlns="http://www.w3.org/2000/svg"
>
  <path
    d="M12.192 28.136H27.696V35.48H12.192V28.136ZM12.864 47H3.36V13.4H29.712V20.744H12.864V47ZM33.2561 47V20.984H41.9441V28.568L40.6481 26.408C41.4161 24.456 42.6641 23 44.3921 22.04C46.1201 21.048 48.2161 20.552 50.6801 20.552V28.76C50.2641 28.696 49.8961 28.664 49.5761 28.664C49.2881 28.632 48.9681 28.616 48.6161 28.616C46.7601 28.616 45.2561 29.128 44.1041 30.152C42.9521 31.144 42.3761 32.776 42.3761 35.048V47H33.2561ZM54.4436 47V20.984H63.5636V47H54.4436ZM59.0036 18.104C57.3396 18.104 55.9956 17.64 54.9716 16.712C53.9476 15.784 53.4356 14.632 53.4356 13.256C53.4356 11.88 53.9476 10.728 54.9716 9.8C55.9956 8.872 57.3396 8.408 59.0036 8.408C60.6676 8.408 62.0116 8.856 63.0356 9.752C64.0596 10.616 64.5716 11.736 64.5716 13.112C64.5716 14.552 64.0596 15.752 63.0356 16.712C62.0436 17.64 60.6996 18.104 59.0036 18.104ZM83.1225 47.432C80.0505 47.432 77.3625 46.856 75.0585 45.704C72.7865 44.52 71.0105 42.92 69.7305 40.904C68.4825 38.856 67.8585 36.536 67.8585 33.944C67.8585 31.352 68.4665 29.048 69.6825 27.032C70.9305 24.984 72.6425 23.4 74.8185 22.28C76.9945 21.128 79.4425 20.552 82.1625 20.552C84.7225 20.552 87.0585 21.08 89.1705 22.136C91.2825 23.16 92.9625 24.68 94.2105 26.696C95.4585 28.712 96.0825 31.16 96.0825 34.04C96.0825 34.36 96.0665 34.728 96.0345 35.144C96.0025 35.56 95.9705 35.944 95.9385 36.296H75.3465V31.496H91.0905L87.6345 32.84C87.6665 31.656 87.4425 30.632 86.9625 29.768C86.5145 28.904 85.8745 28.232 85.0425 27.752C84.2425 27.272 83.2985 27.032 82.2105 27.032C81.1225 27.032 80.1625 27.272 79.3305 27.752C78.5305 28.232 77.9065 28.92 77.4585 29.816C77.0105 30.68 76.7865 31.704 76.7865 32.888V34.28C76.7865 35.56 77.0425 36.664 77.5545 37.592C78.0985 38.52 78.8665 39.24 79.8585 39.752C80.8505 40.232 82.0345 40.472 83.4105 40.472C84.6905 40.472 85.7785 40.296 86.6745 39.944C87.6025 39.56 88.5145 38.984 89.4105 38.216L94.2105 43.208C92.9625 44.584 91.4265 45.64 89.6025 46.376C87.7785 47.08 85.6185 47.432 83.1225 47.432ZM117.231 20.552C119.247 20.552 121.071 20.968 122.703 21.8C124.335 22.6 125.615 23.848 126.543 25.544C127.503 27.24 127.983 29.432 127.983 32.12V47H118.863V33.608C118.863 31.752 118.479 30.408 117.711 29.576C116.975 28.712 115.935 28.28 114.591 28.28C113.631 28.28 112.751 28.504 111.951 28.952C111.151 29.368 110.527 30.024 110.079 30.92C109.631 31.816 109.407 32.984 109.407 34.424V47H100.287V20.984H108.975V28.376L107.295 26.216C108.287 24.328 109.647 22.92 111.375 21.992C113.103 21.032 115.055 20.552 117.231 20.552ZM145.365 47.432C142.997 47.432 140.837 46.888 138.885 45.8C136.965 44.68 135.429 43.128 134.277 41.144C133.125 39.128 132.549 36.728 132.549 33.944C132.549 31.192 133.125 28.824 134.277 26.84C135.429 24.824 136.965 23.272 138.885 22.184C140.837 21.096 142.997 20.552 145.365 20.552C147.605 20.552 149.493 21.032 151.029 21.992C152.597 22.952 153.781 24.424 154.581 26.408C155.381 28.392 155.781 30.904 155.781 33.944C155.781 37.048 155.397 39.592 154.629 41.576C153.861 43.56 152.709 45.032 151.173 45.992C149.637 46.952 147.701 47.432 145.365 47.432ZM147.285 40.184C148.309 40.184 149.221 39.944 150.021 39.464C150.853 38.984 151.509 38.28 151.989 37.352C152.469 36.392 152.709 35.256 152.709 33.944C152.709 32.632 152.469 31.528 151.989 30.632C151.509 29.704 150.853 29 150.021 28.52C149.221 28.04 148.309 27.8 147.285 27.8C146.229 27.8 145.285 28.04 144.453 28.52C143.653 29 143.013 29.704 142.533 30.632C142.053 31.528 141.813 32.632 141.813 33.944C141.813 35.256 142.053 36.392 142.533 37.352C143.013 38.28 143.653 38.984 144.453 39.464C145.285 39.944 146.229 40.184 147.285 40.184ZM152.997 47V42.536L153.045 33.944L152.565 25.352V11.384H161.685V47H152.997ZM177.009 47.432C174.801 47.432 172.641 47.176 170.529 46.664C168.449 46.152 166.769 45.512 165.489 44.744L168.225 38.504C169.441 39.24 170.865 39.832 172.497 40.28C174.129 40.696 175.729 40.904 177.297 40.904C178.833 40.904 179.889 40.744 180.465 40.424C181.073 40.104 181.377 39.672 181.377 39.128C181.377 38.616 181.089 38.248 180.513 38.024C179.969 37.768 179.233 37.576 178.305 37.448C177.409 37.32 176.417 37.176 175.329 37.016C174.241 36.856 173.137 36.648 172.017 36.392C170.929 36.104 169.921 35.688 168.993 35.144C168.097 34.568 167.377 33.8 166.833 32.84C166.289 31.88 166.017 30.664 166.017 29.192C166.017 27.528 166.497 26.056 167.457 24.776C168.449 23.464 169.889 22.44 171.777 21.704C173.665 20.936 175.969 20.552 178.689 20.552C180.513 20.552 182.353 20.744 184.209 21.128C186.097 21.48 187.681 22.024 188.961 22.76L186.225 28.952C184.945 28.216 183.665 27.72 182.385 27.464C181.105 27.176 179.889 27.032 178.737 27.032C177.201 27.032 176.113 27.208 175.473 27.56C174.865 27.912 174.561 28.344 174.561 28.856C174.561 29.368 174.833 29.768 175.377 30.056C175.921 30.312 176.641 30.52 177.537 30.68C178.465 30.808 179.473 30.952 180.561 31.112C181.649 31.24 182.737 31.448 183.825 31.736C184.945 32.024 185.953 32.456 186.849 33.032C187.777 33.576 188.513 34.328 189.057 35.288C189.601 36.216 189.873 37.416 189.873 38.888C189.873 40.488 189.377 41.928 188.385 43.208C187.425 44.488 185.985 45.512 184.065 46.28C182.177 47.048 179.825 47.432 177.009 47.432ZM210.747 20.552C212.763 20.552 214.587 20.968 216.219 21.8C217.851 22.6 219.131 23.848 220.059 25.544C221.019 27.24 221.499 29.432 221.499 32.12V47H212.379V33.608C212.379 31.752 211.995 30.408 211.227 29.576C210.491 28.712 209.451 28.28 208.107 28.28C207.147 28.28 206.267 28.504 205.467 28.952C204.667 29.368 204.043 30.024 203.595 30.92C203.147 31.816 202.923 32.984 202.923 34.424V47H193.803V11.384H202.923V28.376L200.811 26.216C201.803 24.328 203.163 22.92 204.891 21.992C206.619 21.032 208.571 20.552 210.747 20.552ZM227.225 47V20.984H236.345V47H227.225ZM231.785 18.104C230.121 18.104 228.777 17.64 227.753 16.712C226.729 15.784 226.217 14.632 226.217 13.256C226.217 11.88 226.729 10.728 227.753 9.8C228.777 8.872 230.121 8.408 231.785 8.408C233.449 8.408 234.793 8.856 235.817 9.752C236.841 10.616 237.353 11.736 237.353 13.112C237.353 14.552 236.841 15.752 235.817 16.712C234.825 17.64 233.481 18.104 231.785 18.104ZM258.64 47.432C256.432 47.432 254.544 46.952 252.976 45.992C251.408 45 250.208 43.528 249.376 41.576C248.576 39.592 248.176 37.064 248.176 33.992C248.176 30.888 248.56 28.36 249.328 26.408C250.096 24.424 251.248 22.952 252.784 21.992C254.352 21.032 256.304 20.552 258.64 20.552C261.008 20.552 263.152 21.112 265.072 22.232C267.024 23.32 268.56 24.872 269.68 26.888C270.832 28.872 271.408 31.24 271.408 33.992C271.408 36.744 270.832 39.128 269.68 41.144C268.56 43.16 267.024 44.712 265.072 45.8C263.152 46.888 261.008 47.432 258.64 47.432ZM242.272 56.312V20.984H250.96V25.4L250.912 33.992L251.392 42.632V56.312H242.272ZM256.72 40.184C257.744 40.184 258.656 39.944 259.456 39.464C260.288 38.984 260.944 38.28 261.424 37.352C261.936 36.424 262.192 35.304 262.192 33.992C262.192 32.68 261.936 31.56 261.424 30.632C260.944 29.704 260.288 29 259.456 28.52C258.656 28.04 257.744 27.8 256.72 27.8C255.696 27.8 254.768 28.04 253.936 28.52C253.136 29 252.48 29.704 251.968 30.632C251.488 31.56 251.248 32.68 251.248 33.992C251.248 35.304 251.488 36.424 251.968 37.352C252.48 38.28 253.136 38.984 253.936 39.464C254.768 39.944 255.696 40.184 256.72 40.184Z"
    fill="#E3F2FD"
  />
  <path
    d="M386.36 47V13.4H401.72C404.792 13.4 407.432 13.896 409.64 14.888C411.88 15.88 413.608 17.32 414.824 19.208C416.04 21.064 416.648 23.272 416.648 25.832C416.648 28.36 416.04 30.552 414.824 32.408C413.608 34.264 411.88 35.704 409.64 36.728C407.432 37.72 404.792 38.216 401.72 38.216H391.64L395.864 34.088V47H386.36ZM395.864 35.096L391.64 30.728H401.144C403.128 30.728 404.6 30.296 405.56 29.432C406.552 28.568 407.048 27.368 407.048 25.832C407.048 24.264 406.552 23.048 405.56 22.184C404.6 21.32 403.128 20.888 401.144 20.888H391.64L395.864 16.52V35.096ZM421.319 47V11.384H430.439V47H421.319ZM452.254 47V42.152L451.63 40.952V32.024C451.63 30.584 451.182 29.48 450.286 28.712C449.422 27.912 448.03 27.512 446.109 27.512C444.862 27.512 443.598 27.72 442.318 28.136C441.038 28.52 439.95 29.064 439.054 29.768L435.982 23.576C437.454 22.616 439.214 21.88 441.262 21.368C443.342 20.824 445.406 20.552 447.454 20.552C451.678 20.552 454.942 21.528 457.246 23.48C459.582 25.4 460.75 28.424 460.75 32.552V47H452.254ZM444.574 47.432C442.494 47.432 440.734 47.08 439.294 46.376C437.854 45.672 436.75 44.712 435.982 43.496C435.246 42.28 434.878 40.92 434.878 39.416C434.878 37.816 435.278 36.44 436.078 35.288C436.91 34.104 438.174 33.208 439.87 32.6C441.566 31.96 443.758 31.64 446.446 31.64H452.59V36.392H447.694C446.222 36.392 445.182 36.632 444.574 37.112C443.998 37.592 443.71 38.232 443.71 39.032C443.71 39.832 444.014 40.472 444.622 40.952C445.23 41.432 446.062 41.672 447.118 41.672C448.11 41.672 449.006 41.432 449.806 40.952C450.638 40.44 451.246 39.672 451.63 38.648L452.878 42.008C452.398 43.8 451.454 45.16 450.046 46.088C448.67 46.984 446.846 47.432 444.574 47.432ZM478.122 47.432C474.794 47.432 472.202 46.616 470.346 44.984C468.49 43.32 467.562 40.824 467.562 37.496V15.176H476.682V37.4C476.682 38.328 476.938 39.064 477.45 39.608C477.962 40.12 478.618 40.376 479.418 40.376C480.506 40.376 481.434 40.104 482.202 39.56L484.458 45.944C483.69 46.456 482.746 46.824 481.626 47.048C480.506 47.304 479.338 47.432 478.122 47.432ZM463.77 28.76V21.944H482.634V28.76H463.77ZM489.031 47V21.272C489.031 18.136 489.959 15.64 491.815 13.784C493.703 11.896 496.391 10.952 499.879 10.952C500.999 10.952 502.103 11.064 503.191 11.288C504.279 11.512 505.191 11.848 505.927 12.296L503.671 18.728C503.287 18.504 502.855 18.328 502.375 18.2C501.895 18.04 501.415 17.96 500.935 17.96C499.975 17.96 499.223 18.248 498.679 18.824C498.167 19.368 497.911 20.216 497.911 21.368V23.24L498.151 27.032V47H489.031ZM485.239 28.76V21.944H504.103V28.76H485.239ZM520.25 47.432C517.402 47.432 514.874 46.856 512.666 45.704C510.458 44.552 508.714 42.968 507.434 40.952C506.186 38.904 505.562 36.568 505.562 33.944C505.562 31.32 506.186 29 507.434 26.984C508.714 24.968 510.458 23.4 512.666 22.28C514.874 21.128 517.402 20.552 520.25 20.552C523.098 20.552 525.626 21.128 527.834 22.28C530.074 23.4 531.818 24.968 533.066 26.984C534.314 29 534.938 31.32 534.938 33.944C534.938 36.568 534.314 38.904 533.066 40.952C531.818 42.968 530.074 44.552 527.834 45.704C525.626 46.856 523.098 47.432 520.25 47.432ZM520.25 40.184C521.306 40.184 522.234 39.944 523.034 39.464C523.866 38.984 524.522 38.28 525.002 37.352C525.482 36.392 525.722 35.256 525.722 33.944C525.722 32.632 525.482 31.528 525.002 30.632C524.522 29.704 523.866 29 523.034 28.52C522.234 28.04 521.306 27.8 520.25 27.8C519.226 27.8 518.298 28.04 517.466 28.52C516.666 29 516.01 29.704 515.498 30.632C515.018 31.528 514.778 32.632 514.778 33.944C514.778 35.256 515.018 36.392 515.498 37.352C516.01 38.28 516.666 38.984 517.466 39.464C518.298 39.944 519.226 40.184 520.25 40.184ZM539.162 47V20.984H547.85V28.568L546.554 26.408C547.322 24.456 548.57 23 550.298 22.04C552.026 21.048 554.122 20.552 556.586 20.552V28.76C556.17 28.696 555.802 28.664 555.482 28.664C555.194 28.632 554.874 28.616 554.522 28.616C552.666 28.616 551.162 29.128 550.01 30.152C548.858 31.144 548.282 32.776 548.282 35.048V47H539.162ZM594.238 20.552C596.254 20.552 598.046 20.968 599.614 21.8C601.214 22.6 602.462 23.848 603.358 25.544C604.286 27.24 604.75 29.432 604.75 32.12V47H595.63V33.608C595.63 31.752 595.278 30.408 594.574 29.576C593.87 28.712 592.91 28.28 591.694 28.28C590.83 28.28 590.046 28.488 589.342 28.904C588.638 29.32 588.094 29.96 587.71 30.824C587.326 31.656 587.134 32.744 587.134 34.088V47H578.014V33.608C578.014 31.752 577.662 30.408 576.958 29.576C576.286 28.712 575.326 28.28 574.078 28.28C573.182 28.28 572.382 28.488 571.678 28.904C571.006 29.32 570.462 29.96 570.046 30.824C569.662 31.656 569.47 32.744 569.47 34.088V47H560.35V20.984H569.038V28.232L567.31 26.168C568.27 24.312 569.582 22.92 571.246 21.992C572.91 21.032 574.766 20.552 576.814 20.552C579.15 20.552 581.198 21.16 582.958 22.376C584.75 23.56 585.95 25.416 586.558 27.944L583.582 27.32C584.51 25.208 585.902 23.56 587.758 22.376C589.646 21.16 591.806 20.552 594.238 20.552Z"
    fill="#E3F2FD"
  />
  <path
    opacity="0.4"
    d="M341.892 19.0921C341.717 19.0677 341.542 19.0677 341.367 19.0921C337.486 18.97 334.407 15.8683 334.407 12.0583C334.407 8.17501 337.636 5 341.642 5C345.623 5 348.877 8.15058 348.877 12.0583C348.852 15.8683 345.773 18.97 341.892 19.0921Z"
    fill="#BBDEFB"
  />
  <path
    opacity="0.4"
    d="M350.055 36.0171C347.251 37.8489 343.321 38.5327 339.691 38.0687C340.642 36.066 341.143 33.8435 341.168 31.4989C341.168 29.0565 340.617 26.7363 339.565 24.7092C343.271 24.2208 347.201 24.9046 350.03 26.7363C353.986 29.2764 353.986 33.4527 350.055 36.0171Z"
    fill="#BBDEFB"
  />
  <path
    opacity="0.4"
    d="M314.131 19.0921C314.307 19.0677 314.482 19.0677 314.657 19.0921C318.538 18.97 321.617 15.8683 321.617 12.0583C321.617 8.17501 318.387 5 314.382 5C310.401 5 307.146 8.15058 307.146 12.0583C307.172 15.8683 310.251 18.97 314.131 19.0921Z"
    fill="#BBDEFB"
  />
  <path
    opacity="0.4"
    d="M314.404 31.4993C314.404 33.8684 314.929 36.1153 315.881 38.1424C312.351 38.5088 308.671 37.7761 305.967 36.042C302.011 33.4776 302.011 29.3013 305.967 26.7368C308.645 24.9784 312.426 24.2701 315.981 24.6609C314.954 26.7124 314.404 29.0326 314.404 31.4993Z"
    fill="#BBDEFB"
  />
  <path
    d="M328.352 38.8749C328.152 38.8504 327.927 38.8504 327.702 38.8749C323.095 38.7283 319.415 35.0404 319.415 30.4977C319.415 25.8573 323.245 22.0962 328.027 22.0962C332.784 22.0962 336.639 25.8573 336.639 30.4977C336.639 35.0404 332.984 38.7283 328.352 38.8749Z"
    fill="#BBDEFB"
  />
  <path
    d="M320.216 43.9302C316.436 46.3969 316.436 50.4512 320.216 52.8935C324.522 55.7021 331.582 55.7021 335.888 52.8935C339.668 50.4267 339.668 46.3725 335.888 43.9302C331.607 41.1215 324.547 41.1215 320.216 43.9302Z"
    fill="#BBDEFB"
  />
</svg>
