<svg width="27" height="29" viewBox="0 0 27 29" fill="none" xmlns="http://www.w3.org/2000/svg">
<path d="M16.6132 2.36351C15.4836 1.49951 14.085 1 12.5519 1C8.84016 1 5.82776 4.024 5.82776 7.75C5.82776 11.476 8.84016 14.5 12.5519 14.5C16.2636 14.5 19.276 11.476 19.276 7.75" stroke="#42A5F5" stroke-width="2" stroke-linecap="round" stroke-linejoin="round"/>
<path d="M1 28C1 22.7755 6.17755 18.55 12.5521 18.55C13.8431 18.55 15.0938 18.7255 16.2638 19.0495" stroke="#42A5F5" stroke-width="2" stroke-linecap="round" stroke-linejoin="round"/>
<path d="M26 22.6C26 23.032 25.9462 23.4505 25.8386 23.8555C25.7176 24.3955 25.5024 24.922 25.22 25.381C24.2921 26.947 22.5842 28 20.6207 28C19.2356 28 17.9849 27.4735 17.0435 26.6095C16.6401 26.2585 16.2904 25.84 16.0215 25.381C15.5239 24.571 15.2415 23.6125 15.2415 22.6C15.2415 21.142 15.8197 19.8055 16.7611 18.8335C17.7428 17.821 19.1145 17.2 20.6207 17.2C22.2076 17.2 23.6466 17.8885 24.6149 18.9955C25.4755 19.954 26 21.223 26 22.6Z" stroke="#42A5F5" stroke-width="2" stroke-miterlimit="10" stroke-linecap="round" stroke-linejoin="round"/>
<path d="M22.624 22.573H18.6166" stroke="#42A5F5" stroke-width="2" stroke-miterlimit="10" stroke-linecap="round" stroke-linejoin="round"/>
<path d="M20.6207 20.602V24.6385" stroke="#42A5F5" stroke-width="2" stroke-miterlimit="10" stroke-linecap="round" stroke-linejoin="round"/>
</svg>