<svg width="50" height="50" viewBox="0 0 50 50" fill="none" xmlns="http://www.w3.org/2000/svg">
<path opacity="0.4" d="M50 14.525V35.475C50 42.5 46.775 47.325 41.1 49.15C39.45 49.725 37.55 50 35.475 50H14.525C12.45 50 10.55 49.725 8.9 49.15C3.225 47.325 0 42.5 0 35.475V14.525C0 5.425 5.425 0 14.525 0H35.475C44.575 0 50 5.425 50 14.525Z" fill="#BBDEFB"/>
<path d="M41.1015 49.15C39.4515 49.725 37.5515 50 35.4765 50H14.5264C12.4514 50 10.5514 49.725 8.90137 49.15C9.77637 42.55 16.6764 37.425 25.0012 37.425C33.3262 37.425 40.2265 42.55 41.1015 49.15Z" fill="#BBDEFB"/>
<path d="M33.9498 23.95C33.9498 28.9 29.9498 32.925 24.9998 32.925C20.0498 32.925 16.0498 28.9 16.0498 23.95C16.0498 19.0001 20.0498 15 24.9998 15C29.9498 15 33.9498 19.0001 33.9498 23.95Z" fill="#BBDEFB"/>
</svg>