<svg width="27" height="29" viewBox="0 0 27 29" fill="none" xmlns="http://www.w3.org/2000/svg">
<path d="M16.6132 2.36351C15.4836 1.49951 14.085 1 12.5519 1C8.84016 1 5.82776 4.024 5.82776 7.75C5.82776 11.476 8.84016 14.5 12.5519 14.5C16.2636 14.5 19.276 11.476 19.276 7.75" stroke="#2196F3" stroke-width="2" stroke-linecap="round" stroke-linejoin="round"/>
<path d="M1 28C1 22.7755 6.17759 18.55 12.5521 18.55" stroke="#2196F3" stroke-width="2" stroke-linecap="round" stroke-linejoin="round"/>
<path d="M20.8897 27.19C23.2664 27.19 25.1931 25.2558 25.1931 22.87C25.1931 20.4841 23.2664 18.55 20.8897 18.55C18.513 18.55 16.5862 20.4841 16.5862 22.87C16.5862 25.2558 18.513 27.19 20.8897 27.19Z" stroke="#2196F3" stroke-width="2" stroke-linecap="round" stroke-linejoin="round"/>
<path d="M26 28L24.6552 26.65" stroke="#2196F3" stroke-width="2" stroke-linecap="round" stroke-linejoin="round"/>
</svg>